<svg version="1.0" xmlns="http://www.w3.org/2000/svg"
 viewBox="0 0 600.000000 600.000000"
 preserveAspectRatio="xMidYMid meet">
<g transform="translate(0.000000,600.000000) scale(0.100000,-0.100000)"
fill="#000000" stroke="none">
<path d="M169 5831 c-21 -21 -29 -39 -29 -64 0 -69 60 -569 71 -590 6 -12 752
-763 1657 -1669 l1647 -1648 -140 -140 c-110 -110 -137 -142 -127 -152 20 -20
14 -72 -11 -96 -25 -24 -76 -29 -95 -10 -9 9 -21 4 -51 -26 -53 -52 -66 -85
-51 -130 6 -19 18 -40 26 -46 7 -7 14 -23 14 -37 0 -29 41 -73 69 -73 11 0 37
-11 57 -25 56 -38 87 -33 145 22 49 47 49 49 37 81 -11 27 -10 37 2 60 20 35
61 50 99 35 28 -10 33 -6 267 228 l239 239 600 -600 c343 -343 608 -600 618
-600 15 0 17 -5 10 -37 -46 -216 86 -398 297 -411 131 -7 241 54 305 169 28
50 30 62 30 154 0 93 -2 104 -31 155 -64 113 -184 178 -308 167 -34 -3 -71 -9
-83 -12 -16 -5 -23 -2 -28 17 -4 12 -274 291 -601 618 l-594 595 239 239 c199
199 238 243 230 257 -18 34 -10 76 17 98 30 24 55 26 86 10 19 -10 27 -6 70
39 56 59 62 94 23 140 -14 17 -25 42 -25 56 0 34 -44 76 -80 76 -15 0 -35 9
-44 19 -39 43 -106 30 -164 -32 -29 -29 -32 -38 -23 -55 37 -69 -38 -140 -108
-103 -14 8 -42 -15 -157 -130 l-139 -139 -1660 1660 c-913 913 -1665 1660
-1672 1660 -6 0 -131 14 -278 30 -147 17 -280 30 -297 30 -19 0 -39 -10 -59
-29z m403 -190 l168 -19 1634 -1636 c898 -900 1631 -1638 1627 -1640 -3 -2
-82 25 -176 61 l-170 64 -825 824 c-803 802 -826 825 -863 825 -73 0 -112 -78
-71 -140 9 -14 381 -389 825 -835 l809 -810 64 -168 c35 -92 60 -169 57 -172
-4 -2 -742 731 -1641 1630 l-1634 1634 -22 193 c-13 106 -23 199 -24 206 0 9
11 11 38 7 20 -3 112 -14 204 -24z m5045 -5049 c85 -46 95 -173 19 -240 -50
-43 -105 -50 -163 -20 -61 31 -86 76 -80 146 3 45 9 59 39 89 51 50 119 60
185 25z"/>
</g>
</svg>
