<svg version="1.0" xmlns="http://www.w3.org/2000/svg"
 viewBox="0 0 59.000000 71.000000"
 preserveAspectRatio="xMidYMid meet">
<g transform="translate(0.000000,71.000000) scale(0.100000,-0.100000)"
fill="#000000" stroke="none">
<path d="M423 696 c-39 -7 -71 -19 -86 -34 -13 -13 -37 -26 -53 -31 -21 -5
-35 -20 -50 -52 -12 -24 -18 -48 -14 -52 16 -18 44 -1 64 38 25 49 74 75 138
75 39 0 50 -5 72 -31 17 -20 26 -42 26 -65 0 -30 -9 -44 -62 -95 -35 -32 -68
-57 -74 -55 -32 12 -76 -92 -49 -114 17 -14 65 25 65 53 0 16 17 33 61 61 49
32 66 50 91 100 34 65 37 109 13 155 -27 54 -55 63 -142 47z"/>
<path d="M123 618 c-15 -18 -23 -47 -31 -129 -6 -58 -14 -114 -18 -125 -5 -13
-4 -16 4 -9 6 6 15 26 20 45 9 31 10 32 11 9 1 -14 -8 -52 -19 -84 -36 -104
-21 -138 26 -63 18 28 27 55 26 79 -1 20 7 85 18 145 11 59 20 118 20 131 0
30 -30 31 -57 1z"/>
<path d="M287 151 c-44 -67 -36 -82 40 -71 51 8 74 33 70 75 -2 27 -5 30 -43
33 -38 3 -43 0 -67 -37z"/>
<path d="M32 83 c-29 -29 -33 -38 -21 -41 12 -2 15 -10 11 -24 -5 -19 -2 -21
32 -15 21 3 44 14 52 24 27 36 12 93 -24 93 -8 0 -30 -17 -50 -37z"/>
</g>
</svg>
