<svg version="1.0" xmlns="http://www.w3.org/2000/svg"
 viewBox="0 0 600.000000 600.000000"
 preserveAspectRatio="xMidYMid meet">
<g transform="translate(0.000000,600.000000) scale(0.100000,-0.100000)"
fill="#000000" stroke="none">
<path d="M1640 5954 c-14 -2 -63 -9 -110 -15 -604 -77 -1147 -508 -1371 -1088
-171 -442 -152 -949 51 -1376 249 -520 750 -889 1319 -970 165 -24 394 -19
566 11 194 34 401 113 581 222 l101 61 1309 -1309 c1421 -1421 1342 -1348
1462 -1355 88 -5 156 19 221 79 101 94 126 226 66 351 -20 40 -277 303 -1329
1354 l-1305 1303 65 109 c238 395 307 890 189 1337 -174 657 -720 1154 -1395
1267 -91 16 -368 28 -420 19z m307 -374 c225 -38 455 -133 640 -263 301 -214
509 -588 562 -1013 11 -85 10 -93 -16 -259 -57 -371 -283 -740 -568 -932 -226
-152 -430 -224 -749 -267 -82 -11 -293 27 -450 80 -205 69 -419 198 -554 334
-191 190 -341 495 -392 793 -25 149 -25 195 0 341 53 303 198 595 395 791 193
194 486 341 783 394 140 25 205 25 349 1z m1267 -2630 l121 -120 -82 -82 -82
-82 -124 123 -124 123 76 78 c42 42 80 78 85 79 5 0 63 -53 130 -119z"/>
<path d="M1650 5340 c-232 -21 -486 -117 -670 -253 -71 -52 -79 -64 -80 -109
0 -28 7 -42 31 -62 47 -40 58 -37 195 55 181 122 373 184 599 196 308 16 597
-86 846 -299 97 -83 124 -93 167 -62 33 23 45 60 32 100 -20 61 -203 203 -370
288 -167 85 -310 127 -499 146 -112 11 -125 11 -251 0z"/>
</g>
</svg>
