<?xml version="1.0" standalone="no"?>
<!DOCTYPE svg PUBLIC "-//W3C//DTD SVG 20010904//EN"
 "http://www.w3.org/TR/2001/REC-SVG-20010904/DTD/svg10.dtd">
<svg version="1.0" xmlns="http://www.w3.org/2000/svg"
 width="600.000000pt" height="600.000000pt" viewBox="0 0 600.000000 600.000000"
 preserveAspectRatio="xMidYMid meet">
<g transform="translate(0.000000,600.000000) scale(0.100000,-0.100000)"
fill="#000000" stroke="none">
<path d="M1542 4478 c-833 -832 -1430 -1436 -1438 -1455 -16 -37 -8 -67 26
-98 18 -17 34 -19 91 -17 l69 3 0 -1376 0 -1375 29 -32 29 -33 2652 0 2652 0
29 33 29 32 0 1375 0 1376 69 -3 c57 -2 73 0 91 17 34 31 42 61 26 98 -8 18
-214 232 -470 487 l-456 455 0 691 c0 480 -3 701 -11 723 -21 59 -33 61 -399
61 l-332 0 -29 -29 -29 -29 0 -301 c0 -166 -3 -301 -7 -301 -4 0 -260 252
-568 560 -525 525 -563 560 -595 560 -33 0 -114 -79 -1458 -1422z m2750 -85
c708 -709 1288 -1291 1288 -1295 0 -5 -1161 -8 -2580 -8 -1419 0 -2580 3
-2580 7 0 8 2572 2583 2580 2583 2 0 584 -579 1292 -1287z m498 317 c0 -302
-3 -550 -7 -550 -4 0 -105 97 -223 215 l-215 215 3 335 3 335 219 0 220 0 0
-550z m738 -3117 l-3 -1318 -952 -3 -953 -2 0 1017 c0 684 -4 1030 -11 1056
-7 26 -21 44 -42 57 -31 19 -55 20 -548 20 -352 0 -526 -4 -548 -11 -64 -23
-61 36 -61 -1104 l0 -1035 -967 2 -968 3 -3 1318 -2 1317 2530 0 2530 0 -2
-1317z m-2857 -212 c33 -33 35 -50 14 -90 -24 -48 -81 -56 -120 -16 -40 39
-31 94 20 123 32 18 55 14 86 -17z"/>
<path d="M2855 4874 c-38 -8 -112 -35 -164 -60 -171 -83 -304 -242 -359 -429
-30 -101 -33 -257 -8 -355 49 -193 187 -367 361 -455 345 -174 766 -34 936
310 55 112 72 189 71 315 -1 195 -65 346 -207 487 -68 67 -99 89 -176 127
-152 73 -299 92 -454 60z m55 -684 l0 -510 -27 6 c-16 3 -65 23 -110 45 -310
149 -391 553 -161 805 28 30 72 69 97 87 53 36 146 76 179 77 l22 0 0 -510z
m320 469 c83 -41 196 -152 233 -229 129 -269 27 -572 -236 -699 -45 -22 -94
-42 -109 -45 l-28 -6 0 511 0 512 37 -6 c21 -4 67 -21 103 -38z"/>
<path d="M731 2574 l-31 -26 -2 -501 -3 -502 -45 -5 c-99 -12 -114 -46 -108
-243 l3 -129 33 -29 32 -29 761 0 c825 0 801 -2 827 55 15 33 16 271 1 314
-13 37 -53 61 -103 61 l-35 0 -3 500 -3 500 -28 27 -27 28 -619 3 -619 2 -31
-26z m554 -594 l0 -435 -202 -3 -203 -2 0 440 0 440 203 -2 202 -3 0 -435z
m585 0 l0 -440 -200 0 -200 0 0 440 0 440 200 0 200 0 0 -440z m160 -655 l0
-35 -650 0 -650 0 0 35 0 35 650 0 650 0 0 -35z"/>
<path d="M4005 2591 c-11 -5 -29 -19 -40 -31 -19 -21 -20 -38 -23 -521 l-3
-499 -35 0 c-50 0 -90 -24 -103 -61 -15 -43 -14 -281 1 -314 26 -57 2 -55 827
-55 l761 0 32 29 33 29 3 129 c6 197 -9 231 -108 243 l-45 5 -3 502 -2 501
-31 26 -31 26 -606 -1 c-334 0 -616 -4 -627 -8z m525 -611 l0 -440 -200 0
-200 0 0 440 0 440 200 0 200 0 0 -440z m590 0 l0 -440 -202 2 -203 3 -3 425
c-1 234 0 431 3 438 3 9 54 12 205 12 l200 0 0 -440z m150 -655 l0 -35 -650 0
-650 0 0 35 0 35 650 0 650 0 0 -35z"/>
</g>
</svg>
