<svg version="1.0" xmlns="http://www.w3.org/2000/svg"
 viewBox="0 0 600.000000 600.000000"
 preserveAspectRatio="xMidYMid meet">
<g transform="translate(0.000000,600.000000) scale(0.100000,-0.100000)"
fill="#000000" stroke="none">
<path d="M1257 5850 c-62 -10 -264 -61 -308 -78 -56 -22 -59 -36 -59 -279 l0
-222 -92 -45 c-168 -82 -323 -165 -340 -182 -15 -15 -18 -43 -20 -228 l-3
-211 -115 -5 c-63 -3 -123 -9 -133 -14 -49 -23 -47 92 -47 -2226 l0 -2162 29
-29 29 -29 2802 0 2802 0 29 29 29 29 0 2162 c0 2318 2 2203 -47 2226 -10 5
-70 11 -133 14 l-115 5 -3 211 c-2 185 -5 213 -20 228 -17 17 -172 100 -339
182 l-93 45 0 223 c0 266 2 261 -112 294 -206 61 -243 66 -443 67 -160 0 -209
-4 -310 -24 -327 -64 -595 -194 -882 -428 -164 -133 -314 -314 -345 -414 -6
-22 -14 -39 -18 -39 -4 0 -12 17 -18 39 -31 100 -181 281 -345 414 -372 303
-729 442 -1152 452 -93 2 -196 0 -228 -5z m384 -186 c322 -44 574 -157 860
-385 108 -86 240 -225 279 -293 l30 -51 0 -2114 0 -2113 -62 58 c-150 138
-355 282 -523 366 -128 65 -326 130 -485 159 -174 32 -421 32 -560 1 -52 -12
-98 -22 -102 -22 -4 0 -8 979 -8 2175 l0 2174 38 10 c68 19 167 40 202 44 84
9 228 6 331 -9z m3149 -9 c36 -9 82 -20 103 -26 l37 -10 0 -2174 c0 -1196 -4
-2175 -8 -2175 -4 0 -50 10 -102 22 -139 31 -386 31 -560 -1 -159 -29 -357
-94 -485 -159 -168 -84 -373 -228 -523 -366 l-62 -58 0 2113 0 2114 30 51 c39
68 171 207 279 293 282 224 530 337 852 386 117 18 346 13 439 -10z m-3900
-2574 l0 -1979 31 -26 c17 -14 36 -26 44 -26 7 0 70 16 140 35 174 48 313 62
456 46 305 -33 532 -112 764 -267 106 -70 151 -104 142 -104 -3 0 -59 15 -124
34 -157 45 -331 74 -536 88 -147 11 -192 10 -344 -5 -274 -28 -465 -84 -710
-208 l-133 -67 0 2162 0 2161 43 24 c99 57 203 111 215 111 9 0 12 -402 12
-1979z m4334 1930 c50 -27 106 -57 123 -67 l33 -19 0 -2161 0 -2162 -132 67
c-246 124 -437 180 -711 208 -152 15 -197 16 -344 5 -205 -14 -379 -43 -536
-88 -65 -19 -121 -34 -124 -34 -9 0 36 34 142 104 232 155 459 234 764 267
143 16 282 2 456 -46 70 -19 133 -35 140 -35 8 0 27 12 44 26 l31 26 0 1979
c0 1501 3 1979 12 1979 6 0 52 -22 102 -49z"/>
</g>
</svg>
